<?xml version="1.0" standalone="no"?>
<!DOCTYPE svg PUBLIC "-//W3C//DTD SVG 20010904//EN"
 "http://www.w3.org/TR/2001/REC-SVG-20010904/DTD/svg10.dtd">
<svg version="1.0" xmlns="http://www.w3.org/2000/svg"
 width="250.000000pt" height="250.000000pt" viewBox="0 0 200.000000 200.000000"
 preserveAspectRatio="xMidYMid meet">
<metadata>
Created by potrace 1.16, written by Peter Selinger 2001-2019
</metadata>
<g transform="translate(0.000000,200.000000) scale(0.044346,-0.041667)"
fill="#2563eb" stroke="none">
<path d="M293 4457 c-2 -4 24 -36 58 -72 52 -54 66 -64 88 -60 17 4 20 3 9 -2
-16 -7 -15 -11 8 -41 l25 -32 1720 0 1719 0 -33 43 c-17 24 -52 71 -77 105
l-45 62 -85 0 c-1253 5 -3383 3 -3387 -3z"/>
<path d="M2918 4033 c-8 -10 -39 -61 -68 -113 -73 -129 -128 -210 -143 -210
-7 0 -28 4 -47 10 -166 47 -511 55 -702 15 -114 -23 -266 -71 -308 -97 -19
-12 -24 -10 -53 23 -32 36 -82 95 -134 159 -15 19 -33 41 -40 48 -7 7 -18 21
-25 30 -22 30 -70 62 -92 62 -94 0 -155 -245 -156 -616 0 -140 -4 -204 -15
-240 -8 -27 -29 -114 -47 -194 -42 -192 -43 -299 -4 -420 36 -110 92 -217 160
-306 38 -50 51 -75 45 -85 -5 -8 -9 -28 -9 -44 0 -31 -34 -92 -112 -200 -24
-32 -67 -98 -96 -145 -29 -47 -62 -97 -73 -113 -69 -97 -252 -492 -280 -607
-22 -91 -15 -260 15 -360 28 -93 24 -104 -30 -95 -17 3 -33 2 -37 -1 -4 -4 33
-50 82 -103 48 -53 110 -132 136 -176 26 -44 63 -101 82 -128 31 -41 34 -52
28 -87 l-7 -40 686 0 c714 0 792 4 960 46 33 9 69 17 80 18 12 1 32 7 46 13
14 5 38 13 54 17 23 6 27 4 23 -8 -6 -16 12 -86 23 -86 4 0 5 25 2 55 -2 31
-1 55 4 53 11 -3 74 18 139 47 117 51 136 54 134 17 0 -11 -3 -12 -6 -4 -2 6
-9 12 -15 12 -6 0 -4 -8 4 -17 9 -10 18 -27 22 -38 3 -11 4 4 2 33 -4 64 10
79 17 19 13 -96 30 -177 38 -177 13 0 11 34 -6 123 -8 43 -15 85 -15 92 0 15
50 35 87 35 13 0 22 4 19 9 -4 5 7 12 24 16 16 4 32 11 35 16 4 5 17 9 31 9
20 0 24 -5 23 -27 0 -25 -1 -26 -9 -8 -8 19 -9 19 -9 -2 -1 -13 5 -23 13 -23
12 0 28 -84 30 -162 1 -9 4 -20 9 -24 4 -4 7 -18 7 -31 0 -16 6 -23 20 -23 25
0 25 14 0 154 -11 60 -20 118 -20 128 0 17 20 18 424 18 273 0 427 4 431 10 3
6 3 10 -2 10 -4 0 -22 13 -39 28 -67 58 -84 72 -89 72 -2 0 -15 10 -28 23 -96
92 -118 99 -297 97 -69 -2 -178 -2 -242 -1 -117 1 -118 1 -118 25 0 13 -13 66
-29 117 -16 52 -32 114 -36 139 -4 25 -18 86 -31 137 -13 50 -24 95 -24 100 0
5 17 17 38 27 129 61 238 140 356 260 73 75 175 213 177 240 0 6 4 34 9 61 5
29 4 81 -1 125 -14 107 -69 213 -250 475 -83 121 -155 229 -159 240 -5 11 -25
67 -46 124 -20 58 -45 112 -54 120 -31 27 -67 113 -89 206 -26 113 -66 262
-79 295 -17 44 -51 193 -62 275 -34 239 -104 459 -165 521 -30 30 -94 33 -117
7z m74 -32 c52 -20 116 -194 157 -426 35 -199 35 -197 110 -466 22 -81 43
-165 47 -187 l6 -40 -58 30 c-53 26 -66 29 -120 24 -58 -6 -61 -5 -82 24 -25
33 -97 73 -152 85 -19 4 -55 20 -79 36 -82 53 -138 35 -223 -71 -71 -89 -78
-102 -78 -143 0 -73 59 -143 141 -168 38 -11 202 -14 248 -4 l30 6 0 -64 c0
-77 12 -101 63 -125 21 -9 38 -21 38 -26 0 -15 42 -56 56 -56 24 0 24 -19 -1
-82 -13 -35 -36 -105 -49 -156 -19 -70 -32 -101 -55 -124 -33 -34 -34 -53 -1
-23 11 10 23 16 26 12 3 -3 -48 -59 -113 -124 -65 -65 -154 -161 -198 -214
-44 -52 -140 -166 -213 -252 l-133 -157 -112 111 c-230 229 -522 463 -697 561
-25 14 -71 40 -103 57 -70 41 -177 154 -236 252 -24 40 -59 116 -79 169 -31
84 -35 106 -35 190 1 52 8 131 16 176 20 102 65 286 73 293 3 3 9 -1 15 -9 6
-10 7 0 2 30 -13 74 -9 447 5 530 21 119 60 230 86 240 34 12 58 -8 147 -120
104 -132 156 -190 191 -212 27 -17 28 -17 28 2 0 11 2 20 4 20 2 0 41 14 87
31 133 48 232 68 414 81 149 10 187 9 304 -5 158 -20 214 -35 207 -54 -3 -7 0
-13 6 -13 26 0 107 106 173 226 59 107 78 132 112 143 1 1 12 -3 25 -8z m5
-1018 c14 -9 34 -30 43 -46 l18 -29 -44 -40 c-30 -28 -48 -55 -58 -87 -16 -56
-37 -68 -132 -77 -123 -11 -234 29 -270 97 -19 37 -18 99 2 127 20 30 80 31
89 2 3 -11 4 -24 0 -29 -12 -21 74 -75 92 -58 3 3 -2 13 -11 22 -24 24 -66 81
-66 89 0 4 21 -17 46 -46 26 -29 50 -57 54 -62 14 -14 65 4 99 35 30 27 33 34
28 72 -3 23 -9 52 -13 65 l-7 23 52 -21 c28 -11 63 -28 78 -37z m238 -84 c56
-29 103 -76 130 -130 l24 -46 -32 -11 c-57 -21 -137 -110 -200 -222 -27 -48
-46 -53 -79 -23 -23 21 -23 33 1 33 11 0 23 5 26 10 4 6 -12 10 -39 10 -56 0
-104 38 -107 85 -5 79 0 95 48 141 41 41 51 45 85 42 21 -2 38 0 38 4 0 5 -16
8 -35 8 -32 0 -35 2 -25 19 5 11 10 31 10 45 0 24 3 26 45 26 25 0 62 -7 82
-15 31 -13 34 -13 23 0 -14 17 -86 39 -100 30 -6 -3 -10 -1 -10 4 0 19 73 12
115 -10z m220 -306 c21 -65 40 -123 44 -129 7 -14 107 -164 241 -364 117 -175
128 -195 151 -285 48 -183 -2 -310 -189 -483 -116 -107 -333 -245 -354 -224
-9 9 -70 243 -65 249 2 2 25 -8 50 -23 26 -14 53 -24 59 -21 7 3 -5 12 -27 22
-111 48 -312 229 -333 301 -19 64 -15 300 7 429 44 265 172 530 295 613 76 51
79 49 121 -85z m-1856 -677 c10 -7 12 -6 6 4 -5 8 7 3 26 -10 102 -71 139
-102 134 -110 -3 -6 0 -7 8 -4 8 3 19 -2 26 -10 11 -13 8 -15 -26 -11 -22 3
-33 2 -25 -3 7 -5 27 -8 45 -7 40 3 127 -62 105 -77 -9 -6 -6 -7 9 -3 12 3 25
1 29 -6 4 -7 3 -9 -2 -6 -5 3 -10 -3 -10 -13 0 -14 4 -16 13 -9 15 14 27 6
136 -95 47 -44 84 -83 81 -88 -3 -5 -1 -7 5 -6 5 2 43 -30 84 -69 42 -40 72
-73 68 -73 -4 0 -12 5 -19 12 -7 7 -12 8 -12 2 0 -5 5 -15 12 -22 8 -8 8 -12
1 -12 -6 0 -16 7 -23 15 -7 8 -16 12 -21 9 -5 -3 0 -13 11 -22 l21 -17 -30
-29 c-17 -17 -31 -35 -31 -40 -1 -13 -73 -96 -84 -96 -4 0 -5 10 -1 23 6 21 6
21 -9 3 -12 -15 -13 -22 -4 -27 7 -5 9 -11 5 -15 -4 -4 -18 5 -32 20 -29 31
-29 33 -12 39 6 2 4 3 -5 2 -10 -2 -18 1 -18 5 0 5 8 14 18 19 22 13 7 14 -17
1 -14 -7 -27 0 -61 35 -25 25 -41 45 -38 45 4 0 13 -7 22 -15 13 -14 15 -13
13 3 -1 12 -8 18 -21 16 -25 -2 -68 34 -59 49 3 6 1 7 -4 4 -6 -4 -16 -1 -22
7 -9 11 -6 13 14 11 27 -3 30 2 15 25 -8 13 -10 12 -10 -2 0 -10 -5 -18 -11
-18 -6 0 -9 7 -5 15 3 8 1 15 -4 15 -6 0 -10 -7 -10 -15 0 -23 -15 -18 -30 10
-7 14 -17 25 -21 25 -5 0 -5 8 -2 17 5 12 2 15 -9 10 -11 -4 -33 11 -67 45
-28 28 -51 54 -51 59 0 5 -6 9 -13 9 -8 0 -24 11 -37 25 -13 14 -20 25 -15 25
4 0 16 -9 25 -20 18 -21 18 -21 16 3 -1 20 -6 23 -31 22 -25 -2 -43 10 -107
73 -42 42 -74 80 -72 84 3 4 -1 5 -9 2 -8 -3 -17 2 -21 12 -4 11 -2 15 8 11 9
-4 21 5 32 21 l17 27 -21 -18 c-36 -32 -46 -9 -12 29 16 19 30 41 30 49 0 30
77 52 109 31z m-304 -52 c0 -6 -36 -50 -81 -97 -44 -46 -97 -104 -116 -128
-40 -50 -119 -175 -116 -187 0 -4 -4 -18 -10 -32 -6 -14 -11 -18 -12 -10 0 12
-3 11 -11 -3 -6 -10 -8 -25 -5 -33 3 -9 1 -12 -4 -9 -12 7 -13 -5 -1 -23 6 -9
16 2 34 40 15 29 37 67 49 83 13 17 53 71 90 120 37 50 102 125 146 168 l78
78 165 -158 c90 -87 193 -185 229 -217 101 -93 410 -408 410 -419 0 -5 -19
-31 -42 -56 -37 -40 -139 -155 -188 -211 -145 -165 -408 -437 -448 -462 -32
-20 -39 -20 -154 -9 -66 7 -131 16 -143 21 -34 13 -86 86 -92 128 -3 23 3 59
16 97 12 33 33 141 47 240 31 221 54 342 92 505 34 144 51 233 46 239 -1 2 -7
-11 -11 -28 l-8 -32 -20 38 c-11 21 -28 52 -38 68 -17 27 -18 27 -12 5 4 -14
18 -47 31 -73 30 -62 30 -71 -6 -208 -39 -148 -73 -326 -100 -516 -11 -84 -30
-178 -41 -210 -27 -81 -25 -159 6 -205 l24 -36 -38 -101 c-42 -113 -48 -122
-58 -95 -3 10 -10 21 -13 24 -18 13 -94 150 -130 233 -79 185 -93 324 -54 517
14 69 34 146 44 173 10 26 16 57 13 70 -3 16 -2 18 5 9 12 -17 23 34 16 69 -4
16 -3 20 3 11 14 -19 31 27 22 58 -6 21 -7 22 -9 5 -1 -11 -2 -27 -1 -35 2
-12 0 -13 -7 -1 -8 11 -11 8 -17 -10 -4 -13 -22 -64 -40 -114 -18 -49 -44
-139 -57 -200 -22 -104 -23 -107 -26 -60 -4 58 7 108 50 225 41 113 171 373
243 485 31 50 65 103 74 120 25 47 143 166 160 163 9 -2 16 -8 16 -14z m1611
-49 c-3 -9 0 -12 8 -9 14 5 29 -28 26 -58 -1 -10 3 -18 9 -18 6 0 15 -18 21
-40 9 -32 8 -46 -5 -70 -8 -16 -21 -29 -28 -27 -6 1 -11 -4 -9 -12 2 -7 -3
-21 -11 -30 -8 -9 -17 -24 -20 -34 -4 -10 -11 -15 -17 -12 -5 3 -10 0 -10 -7
-1 -26 -60 -92 -83 -93 -14 0 -23 -7 -26 -20 -2 -11 -12 -31 -22 -44 -11 -13
-17 -32 -14 -42 3 -10 0 -21 -9 -26 -8 -4 -31 -33 -51 -63 -23 -34 -34 -45
-30 -30 5 19 4 22 -4 10 -8 -10 -13 -12 -18 -4 -5 7 -16 1 -31 -18 -27 -32
-22 -38 7 -7 22 23 36 11 26 -22 -4 -13 -12 -18 -21 -15 -8 3 -12 1 -9 -4 6
-10 -47 -93 -91 -142 -13 -16 -22 -28 -19 -28 5 0 -2 -9 -45 -60 l-21 -25 6
25 5 25 -12 -23 c-6 -13 -17 -21 -24 -18 -9 3 -11 -1 -7 -11 5 -12 2 -15 -10
-10 -14 5 -15 2 -6 -20 10 -27 14 -20 -141 -203 -99 -117 -178 -190 -196 -184
-14 4 -16 3 -5 -4 16 -11 5 -36 -11 -26 -7 4 -8 2 -4 -5 4 -6 -6 -23 -25 -39
-40 -34 -64 -49 -55 -33 5 7 -3 11 -23 11 -16 0 -32 4 -35 9 -3 5 -52 14 -108
21 -57 7 -108 17 -115 22 -7 6 -20 5 -35 -2 -14 -8 -4 8 26 38 31 32 54 49 65
45 11 -3 12 -2 4 4 -10 7 5 28 54 79 37 38 66 72 65 76 -1 3 6 12 15 20 14 11
16 11 11 -2 -4 -11 2 -15 19 -16 22 -2 22 -1 6 11 -14 11 -15 15 -4 29 9 11
18 13 30 7 13 -7 16 -4 18 17 1 17 -2 21 -7 11 -5 -7 -11 -11 -15 -8 -3 3 3
13 14 23 17 16 20 16 35 1 9 -9 16 -13 16 -8 0 5 -5 14 -12 21 -13 13 8 46 24
36 5 -3 16 0 24 7 12 10 12 14 2 20 -9 6 -8 13 8 31 121 137 201 230 263 307
40 51 75 90 78 87 3 -3 0 -14 -8 -23 -12 -16 -11 -16 8 1 12 10 21 28 20 40
-1 15 3 20 17 18 12 -2 15 1 11 8 -5 9 -1 10 16 5 22 -7 22 -7 6 9 -20 21 -18
26 47 100 49 57 70 70 60 39 -5 -14 -4 -15 4 -4 5 7 14 11 19 8 5 -3 10 0 10
7 0 8 -6 12 -14 9 -32 -12 -7 30 75 123 48 56 115 135 150 177 44 53 71 77 92
82 17 4 30 12 30 18 0 7 5 4 11 -6 6 -10 8 -24 5 -32z m118 -212 c13 -27 126
-140 193 -195 36 -29 50 -77 132 -458 22 -102 47 -205 54 -230 56 -176 57
-194 9 -290 -44 -89 -99 -114 -337 -154 -227 -39 -353 -48 -740 -53 -214 -3
-405 -1 -422 3 l-33 9 123 125 c216 220 367 397 536 633 58 81 147 201 196
266 50 65 128 175 175 244 47 70 88 126 92 127 4 0 14 -12 22 -27z"/>
<path d="M1643 3016 c-25 -25 -60 -55 -77 -67 -102 -70 -103 -198 -2 -267 76
-52 262 -56 359 -8 175 85 163 247 -23 317 -30 11 -57 24 -60 27 -16 23 -65
42 -106 42 -41 0 -51 -5 -91 -44z m312 -73 c49 -30 75 -69 75 -108 0 -62 -70
-138 -153 -165 -53 -17 -173 -18 -229 -1 -55 16 -126 76 -137 117 -15 56 17
126 72 156 15 7 18 6 15 -8 -2 -11 5 -20 18 -23 12 -3 40 -28 63 -55 72 -84
65 -80 121 -61 63 21 100 63 100 114 0 20 -5 42 -12 49 -23 23 23 13 67 -15z"/>
<path d="M2200 2823 c-20 -10 -36 -27 -38 -39 -4 -29 40 -79 88 -100 39 -17
40 -19 40 -69 0 -63 -13 -77 -96 -106 -42 -15 -75 -20 -116 -17 -69 5 -94 24
-107 82 l-9 41 -1 -36 c-1 -47 29 -85 77 -99 38 -10 156 3 178 21 6 5 30 15
53 24 40 14 45 13 84 -7 23 -11 69 -23 102 -25 51 -4 64 -2 87 16 30 24 48 85
29 104 -8 8 -11 0 -11 -30 0 -83 -90 -107 -198 -51 -45 23 -47 26 -50 71 -3
41 0 50 24 70 83 68 100 102 70 142 -21 29 -156 34 -206 8z"/>
<path d="M536 3184 c-10 -86 -53 -154 -98 -154 -10 0 -18 -7 -18 -16 0 -11 5
-14 16 -10 51 19 139 -79 164 -181 15 -66 30 -68 30 -4 0 115 35 206 90 232
l25 12 -33 7 c-56 13 -101 51 -130 112 -15 32 -30 58 -33 58 -3 0 -9 -25 -13
-56z"/>
</g>
</svg>
