<svg width="203" height="60" viewBox="0 0 203 60" fill="none" xmlns="http://www.w3.org/2000/svg">
    <mask id="mask0" mask-type="alpha" maskUnits="userSpaceOnUse" x="0" y="0" width="203" height="60">
        <path fill-rule="evenodd" clip-rule="evenodd" d="M0 0H202.5V59.9999H0V0Z" fill="white"/>
    </mask>
    <g mask="url(#mask0)">
        <path fill-rule="evenodd" clip-rule="evenodd" d="M195 60H7.5C3.3 60 0 56.7 0 52.5V7.5C0 3.3 3.3 0 7.5 0H195C199.2 0 202.5 3.3 202.5 7.5V52.5C202.5 56.7 199.2 60 195 60Z" fill="black"/>
    </g>
    <path fill-rule="evenodd" clip-rule="evenodd" d="M113.4 19.4996V10.4996H114.75L119.1 17.5496V10.4996H120.3V19.4996H119.1L114.45 12.1496V19.4996H113.4ZM104.7 17.5496C105.3 18.1496 106.2 18.5996 107.1 18.5996C108 18.5996 108.9 18.2996 109.5 17.5496C110.1 16.9496 110.55 16.0496 110.55 14.9996C110.55 13.9496 110.25 13.0496 109.5 12.4496C108.9 11.8496 108 11.3996 107.1 11.3996C106.2 11.3996 105.3 11.6996 104.7 12.4496C104.1 13.0496 103.65 13.9496 103.65 14.9996C103.65 16.0496 103.95 16.9496 104.7 17.5496ZM110.4 18.2996C109.5 19.1996 108.45 19.6496 107.1 19.6496C105.75 19.6496 104.7 19.1996 103.8 18.2996C102.9 17.3996 102.45 16.3496 102.45 14.9996C102.45 13.6496 102.9 12.5996 103.8 11.6996C104.7 10.7996 105.75 10.3496 107.1 10.3496C108.45 10.3496 109.5 10.7996 110.4 11.6996C111.3 12.5996 111.75 13.6496 111.75 14.9996C111.75 16.3496 111.3 17.3996 110.4 18.2996ZM96.1496 19.4996H94.9496V11.5496H92.3996V10.4996H98.5496V11.5496H95.9996V19.4996H96.1496ZM89.8496 19.4996H91.0496V10.4996H89.8496V19.4996ZM82.9496 19.4996H81.7496V11.5496H79.1996V10.4996H85.4996V11.5496H82.9496V19.4996ZM77.9996 11.5496H73.9496V14.3996H77.6996V15.4496H73.9496V18.2996H77.9996V19.4996H72.7496V10.4996H77.9996V11.5496ZM71.0996 15.2996C71.0996 16.4996 70.7996 17.5496 70.0496 18.2996C69.1496 19.1996 68.0996 19.6496 66.7496 19.6496C65.3996 19.6496 64.3496 19.1996 63.4496 18.2996C62.5496 17.3996 62.0996 16.3496 62.0996 14.9996C62.0996 13.6496 62.5496 12.5996 63.4496 11.6996C64.3496 10.7996 65.3996 10.3496 66.7496 10.3496C67.3496 10.3496 67.9496 10.4996 68.5496 10.7996C69.1496 11.0996 69.5996 11.3996 69.8996 11.8496L69.1496 12.5996C68.5496 11.8496 67.7996 11.5496 66.7496 11.5496C65.8496 11.5496 64.9496 11.8496 64.3496 12.5996C63.5996 13.1996 63.2996 14.0996 63.2996 15.1496C63.2996 16.1996 63.5996 17.0996 64.3496 17.6996C65.0996 18.2996 65.8496 18.7496 66.7496 18.7496C67.7996 18.7496 68.5496 18.4496 69.2996 17.6996C69.7496 17.2496 70.0496 16.6496 70.0496 15.8996H66.7496V14.6996H71.0996V15.2996Z" fill="white"/>
    <path d="M113.4 19.4996H113.373V19.5266H113.4V19.4996ZM113.4 10.4996V10.4726H113.373V10.4996H113.4ZM114.75 10.4996L114.773 10.4854L114.765 10.4726H114.75V10.4996ZM119.1 17.5496L119.077 17.5638L119.127 17.6448V17.5496H119.1ZM119.1 10.4996V10.4726H119.073V10.4996H119.1ZM120.3 10.4996H120.327V10.4726H120.3V10.4996ZM120.3 19.4996V19.5266H120.327V19.4996H120.3ZM119.1 19.4996L119.077 19.514L119.085 19.5266H119.1V19.4996ZM114.45 12.1496L114.472 12.1352L114.423 12.0564V12.1496H114.45ZM114.45 19.4996V19.5266H114.477V19.4996H114.45ZM104.7 17.5496L104.719 17.5304L104.716 17.5285L104.7 17.5496ZM109.5 17.5496L109.48 17.5304L109.479 17.5327L109.5 17.5496ZM109.5 12.4496L109.48 12.4688L109.483 12.4707L109.5 12.4496ZM104.7 12.4496L104.719 12.4688L104.721 12.4665L104.7 12.4496ZM94.9496 19.4996H94.9226V19.5266H94.9496V19.4996ZM94.9496 11.5496H94.9766V11.5226H94.9496V11.5496ZM92.3996 11.5496H92.3726V11.5766H92.3996V11.5496ZM92.3996 10.4996V10.4726H92.3726V10.4996H92.3996ZM98.5496 10.4996H98.5766V10.4726H98.5496V10.4996ZM98.5496 11.5496V11.5766H98.5766V11.5496H98.5496ZM95.9996 11.5496V11.5226H95.9726V11.5496H95.9996ZM95.9996 19.4996H95.9726V19.5266H95.9996V19.4996ZM89.8496 19.4996H89.8226V19.5266H89.8496V19.4996ZM91.0496 19.4996V19.5266H91.0766V19.4996H91.0496ZM91.0496 10.4996H91.0766V10.4726H91.0496V10.4996ZM89.8496 10.4996V10.4726H89.8226V10.4996H89.8496ZM82.9496 19.4996V19.5266H82.9766V19.4996H82.9496ZM81.7496 19.4996H81.7226V19.5266H81.7496V19.4996ZM81.7496 11.5496H81.7766V11.5226H81.7496V11.5496ZM79.1996 11.5496H79.1726V11.5766H79.1996V11.5496ZM79.1996 10.4996V10.4726H79.1726V10.4996H79.1996ZM85.4996 10.4996H85.5266V10.4726H85.4996V10.4996ZM85.4996 11.5496V11.5766H85.5266V11.5496H85.4996ZM82.9496 11.5496V11.5226H82.9226V11.5496H82.9496ZM77.9996 11.5496V11.5766H78.0266V11.5496H77.9996ZM73.9496 11.5496V11.5226H73.9226V11.5496H73.9496ZM73.9496 14.3996H73.9226V14.4266H73.9496V14.3996ZM77.6996 14.3996H77.7266V14.3726H77.6996V14.3996ZM77.6996 15.4496V15.4766H77.7266V15.4496H77.6996ZM73.9496 15.4496V15.4226H73.9226V15.4496H73.9496ZM73.9496 18.2996H73.9226V18.3266H73.9496V18.2996ZM77.9996 18.2996H78.0266V18.2726H77.9996V18.2996ZM77.9996 19.4996V19.5266H78.0266V19.4996H77.9996ZM72.7496 19.4996H72.7226V19.5266H72.7496V19.4996ZM72.7496 10.4996V10.4726H72.7226V10.4996H72.7496ZM77.9996 10.4996H78.0266V10.4726H77.9996V10.4996ZM69.8996 11.8496L69.9187 11.8687L69.9344 11.853L69.9221 11.8346L69.8996 11.8496ZM69.1496 12.5996L69.1285 12.6165L69.1474 12.64L69.1687 12.6187L69.1496 12.5996ZM64.3496 12.5996L64.3669 12.6212L64.3707 12.6165L64.3496 12.5996ZM70.0496 15.8996H70.0766V15.8726H70.0496V15.8996ZM66.7496 15.8996H66.7226V15.9266H66.7496V15.8996ZM66.7496 14.6996V14.6726H66.7226V14.6996H66.7496ZM71.0996 14.6996H71.1266V14.6726H71.0996V14.6996ZM113.427 19.4996V10.4996H113.373V19.4996H113.427ZM113.4 10.5266H114.75V10.4726H113.4V10.5266ZM114.727 10.5138L119.077 17.5638L119.123 17.5354L114.773 10.4854L114.727 10.5138ZM119.127 17.5496V10.4996H119.073V17.5496H119.127ZM119.1 10.5266H120.3V10.4726H119.1V10.5266ZM120.273 10.4996V19.4996H120.327V10.4996H120.273ZM120.3 19.4726H119.1V19.5266H120.3V19.4726ZM119.122 19.4852L114.472 12.1352L114.427 12.164L119.077 19.514L119.122 19.4852ZM114.423 12.1496V19.4996H114.477V12.1496H114.423ZM114.45 19.4726H113.4V19.5266H114.45V19.4726ZM104.681 17.5687C105.285 18.1728 106.191 18.6266 107.1 18.6266V18.5726C106.208 18.5726 105.315 18.1264 104.719 17.5305L104.681 17.5687ZM107.1 18.6266C108.005 18.6266 108.914 18.3246 109.521 17.5665L109.479 17.5327C108.885 18.2746 107.994 18.5726 107.1 18.5726V18.6266ZM109.519 17.5687C110.123 16.9641 110.577 16.0574 110.577 14.9996H110.523C110.523 16.0418 110.076 16.9351 109.481 17.5305L109.519 17.5687ZM110.577 14.9996C110.577 13.9446 110.275 13.0354 109.516 12.4285L109.483 12.4707C110.224 13.0638 110.523 13.9546 110.523 14.9996H110.577ZM109.519 12.4305C108.915 11.8264 108.008 11.3726 107.1 11.3726V11.4266C107.991 11.4266 108.885 11.8728 109.481 12.4687L109.519 12.4305ZM107.1 11.3726C106.194 11.3726 105.285 11.6746 104.679 12.4327L104.721 12.4665C105.314 11.7246 106.205 11.4266 107.1 11.4266V11.3726ZM104.681 12.4305C104.076 13.0351 103.623 13.9418 103.623 14.9996H103.677C103.677 13.9574 104.123 13.0641 104.719 12.4687L104.681 12.4305ZM103.623 14.9996C103.623 16.0546 103.924 16.9638 104.683 17.5707L104.716 17.5285C103.975 16.9354 103.677 16.0446 103.677 14.9996H103.623ZM110.381 18.2805C109.486 19.1754 108.442 19.6226 107.1 19.6226V19.6766C108.457 19.6766 109.514 19.2238 110.419 18.3187L110.381 18.2805ZM107.1 19.6226C105.757 19.6226 104.714 19.1754 103.819 18.2805L103.781 18.3187C104.686 19.2238 105.742 19.6766 107.1 19.6766V19.6226ZM103.819 18.2805C102.924 17.3856 102.477 16.3425 102.477 14.9996H102.423C102.423 16.3568 102.875 17.4136 103.781 18.3187L103.819 18.2805ZM102.477 14.9996C102.477 13.6568 102.924 12.6136 103.819 11.7187L103.781 11.6805C102.875 12.5856 102.423 13.6425 102.423 14.9996H102.477ZM103.819 11.7187C104.714 10.8238 105.757 10.3766 107.1 10.3766V10.3226C105.742 10.3226 104.686 10.7754 103.781 11.6805L103.819 11.7187ZM107.1 10.3766C108.442 10.3766 109.486 10.8238 110.381 11.7187L110.419 11.6805C109.514 10.7754 108.457 10.3226 107.1 10.3226V10.3766ZM110.381 11.7187C111.275 12.6136 111.723 13.6568 111.723 14.9996H111.777C111.777 13.6425 111.324 12.5856 110.419 11.6805L110.381 11.7187ZM111.723 14.9996C111.723 16.3425 111.275 17.3856 110.381 18.2805L110.419 18.3187C111.324 17.4136 111.777 16.3568 111.777 14.9996H111.723ZM96.1496 19.4726H94.9496V19.5266H96.1496V19.4726ZM94.9766 19.4996V11.5496H94.9226V19.4996H94.9766ZM94.9496 11.5226H92.3996V11.5766H94.9496V11.5226ZM92.4266 11.5496V10.4996H92.3726V11.5496H92.4266ZM92.3996 10.5266H98.5496V10.4726H92.3996V10.5266ZM98.5226 10.4996V11.5496H98.5766V10.4996H98.5226ZM98.5496 11.5226H95.9996V11.5766H98.5496V11.5226ZM95.9726 11.5496V19.4996H96.0266V11.5496H95.9726ZM95.9996 19.5266H96.1496V19.4726H95.9996V19.5266ZM89.8496 19.5266H91.0496V19.4726H89.8496V19.5266ZM91.0766 19.4996V10.4996H91.0226V19.4996H91.0766ZM91.0496 10.4726H89.8496V10.5266H91.0496V10.4726ZM89.8226 10.4996V19.4996H89.8766V10.4996H89.8226ZM82.9496 19.4726H81.7496V19.5266H82.9496V19.4726ZM81.7766 19.4996V11.5496H81.7226V19.4996H81.7766ZM81.7496 11.5226H79.1996V11.5766H81.7496V11.5226ZM79.2266 11.5496V10.4996H79.1726V11.5496H79.2266ZM79.1996 10.5266H85.4996V10.4726H79.1996V10.5266ZM85.4726 10.4996V11.5496H85.5266V10.4996H85.4726ZM85.4996 11.5226H82.9496V11.5766H85.4996V11.5226ZM82.9226 11.5496V19.4996H82.9766V11.5496H82.9226ZM77.9996 11.5226H73.9496V11.5766H77.9996V11.5226ZM73.9226 11.5496V14.3996H73.9766V11.5496H73.9226ZM73.9496 14.4266H77.6996V14.3726H73.9496V14.4266ZM77.6726 14.3996V15.4496H77.7266V14.3996H77.6726ZM77.6996 15.4226H73.9496V15.4766H77.6996V15.4226ZM73.9226 15.4496V18.2996H73.9766V15.4496H73.9226ZM73.9496 18.3266H77.9996V18.2726H73.9496V18.3266ZM77.9726 18.2996V19.4996H78.0266V18.2996H77.9726ZM77.9996 19.4726H72.7496V19.5266H77.9996V19.4726ZM72.7766 19.4996V10.4996H72.7226V19.4996H72.7766ZM72.7496 10.5266H77.9996V10.4726H72.7496V10.5266ZM77.9726 10.4996V11.5496H78.0266V10.4996H77.9726ZM71.0726 15.2996C71.0726 16.4954 70.7737 17.5374 70.0305 18.2805L70.0687 18.3187C70.8256 17.5619 71.1266 16.5038 71.1266 15.2996H71.0726ZM70.0305 18.2805C69.1356 19.1754 68.0925 19.6226 66.7496 19.6226V19.6766C68.1068 19.6766 69.1636 19.2238 70.0687 18.3187L70.0305 18.2805ZM66.7496 19.6226C65.4068 19.6226 64.3636 19.1754 63.4687 18.2805L63.4305 18.3187C64.3356 19.2238 65.3925 19.6766 66.7496 19.6766V19.6226ZM63.4687 18.2805C62.5738 17.3856 62.1266 16.3425 62.1266 14.9996H62.0726C62.0726 16.3568 62.5254 17.4136 63.4305 18.3187L63.4687 18.2805ZM62.1266 14.9996C62.1266 13.6568 62.5738 12.6136 63.4687 11.7187L63.4305 11.6805C62.5254 12.5856 62.0726 13.6425 62.0726 14.9996H62.1266ZM63.4687 11.7187C64.3636 10.8238 65.4068 10.3766 66.7496 10.3766V10.3226C65.3925 10.3226 64.3356 10.7754 63.4305 11.6805L63.4687 11.7187ZM66.7496 10.3766C67.3449 10.3766 67.9408 10.5254 68.5375 10.8238L68.5617 10.7755C67.9584 10.4738 67.3543 10.3226 66.7496 10.3226V10.3766ZM68.5375 10.8238C69.1364 11.1232 69.5811 11.4206 69.8771 11.8646L69.9221 11.8346C69.6181 11.3786 69.1628 11.076 68.5617 10.7755L68.5375 10.8238ZM69.8805 11.8305L69.1305 12.5805L69.1687 12.6187L69.9187 11.8687L69.8805 11.8305ZM69.1707 12.5827C68.5645 11.8251 67.806 11.5226 66.7496 11.5226V11.5766C67.7932 11.5766 68.5347 11.8742 69.1285 12.6165L69.1707 12.5827ZM66.7496 11.5226C65.8439 11.5226 64.935 11.8246 64.3285 12.5827L64.3707 12.6165C64.9642 11.8746 65.8553 11.5766 66.7496 11.5766V11.5226ZM64.3327 12.5785C63.5742 13.1854 63.2726 14.0946 63.2726 15.1496H63.3266C63.3266 14.1046 63.625 13.2138 64.3665 12.6207L64.3327 12.5785ZM63.2726 15.1496C63.2726 16.2046 63.5742 17.1138 64.3327 17.7207L64.3665 17.6785C63.625 17.0854 63.3266 16.1946 63.3266 15.1496H63.2726ZM64.3327 17.7207C65.0839 18.3216 65.84 18.7766 66.7496 18.7766V18.7226C65.8592 18.7226 65.1154 18.2776 64.3665 17.6785L64.3327 17.7207ZM66.7496 18.7766C67.2772 18.7766 67.7309 18.7012 68.1473 18.5308C68.5638 18.3605 68.9417 18.0957 69.3187 17.7187L69.2805 17.6805C68.9075 18.0535 68.5354 18.3137 68.1269 18.4809C67.7183 18.648 67.272 18.7226 66.7496 18.7226V18.7766ZM69.3187 17.7187C69.7732 17.2642 70.0766 16.6575 70.0766 15.8996H70.0226C70.0226 16.6417 69.726 17.235 69.2805 17.6805L69.3187 17.7187ZM70.0496 15.8726H66.7496V15.9266H70.0496V15.8726ZM66.7766 15.8996V14.6996H66.7226V15.8996H66.7766ZM66.7496 14.7266H71.0996V14.6726H66.7496V14.7266ZM71.0726 14.6996V15.2996H71.1266V14.6996H71.0726Z" fill="white"/>
    <mask id="mask1" mask-type="alpha" maskUnits="userSpaceOnUse" x="0" y="0" width="203" height="60">
        <path fill-rule="evenodd" clip-rule="evenodd" d="M0 60H202.5V0H0V60Z" fill="white"/>
    </mask>
    <g mask="url(#mask1)">
        <path fill-rule="evenodd" clip-rule="evenodd" d="M160.35 45.0004H163.2V26.2504H160.35V45.0004ZM185.55 33.0004L182.4 41.1004H182.25L178.95 33.0004H175.95L180.9 44.4004L178.05 50.7004H180.9L188.55 33.0004H185.55ZM169.8 42.9004C168.9 42.9004 167.55 42.4504 167.55 41.2504C167.55 39.7504 169.2 39.3004 170.55 39.3004C171.75 39.3004 172.35 39.6004 173.1 39.9004C172.8 41.7004 171.3 42.9004 169.8 42.9004ZM170.1 32.5504C168 32.5504 165.9 33.4504 165.15 35.4004L167.7 36.4504C168.3 35.4004 169.2 35.1004 170.25 35.1004C171.75 35.1004 173.1 36.0004 173.25 37.5004V37.6504C172.8 37.3504 171.6 36.9004 170.4 36.9004C167.7 36.9004 165 38.4004 165 41.1004C165 43.6504 167.25 45.3004 169.65 45.3004C171.6 45.3004 172.5 44.4004 173.25 43.5004H173.4V45.0004H176.1V37.8004C175.8 34.5004 173.25 32.5504 170.1 32.5504ZM152.85 35.2504H148.8V28.8004H152.85C154.95 28.8004 156.15 30.6004 156.15 31.9504C156 33.6004 154.8 35.2504 152.85 35.2504ZM152.7 26.2504H145.95V45.0004H148.8V37.9504H152.7C155.85 37.9504 158.85 35.7004 158.85 32.1004C158.85 28.5004 155.85 26.2504 152.7 26.2504ZM116.1 42.9004C114.15 42.9004 112.5 41.2504 112.5 39.0004C112.5 36.7504 114.15 35.1004 116.1 35.1004C118.05 35.1004 119.55 36.7504 119.55 39.0004C119.55 41.2504 118.05 42.9004 116.1 42.9004ZM119.4 34.0504C118.65 33.3004 117.45 32.5504 115.95 32.5504C112.8 32.5504 109.8 35.4004 109.8 39.0004C109.8 42.6004 112.65 45.3004 115.95 45.3004C117.45 45.3004 118.65 44.5504 119.25 43.8004H119.4V44.7004C119.4 47.1004 118.05 48.4504 115.95 48.4504C114.3 48.4504 113.1 47.2504 112.8 46.2004L110.4 47.2504C111.15 48.9004 112.95 51.0004 116.1 51.0004C119.4 51.0004 122.1 49.0504 122.1 44.4004V33.0004H119.4V34.0504ZM123.9 45.0004H126.75V26.2504H123.9V45.0004ZM130.95 38.8504C130.95 36.4504 132.9 35.1004 134.25 35.1004C135.3 35.1004 136.35 35.7004 136.65 36.4504L130.95 38.8504ZM139.65 36.7504C139.05 35.2504 137.55 32.7004 134.25 32.7004C130.95 32.7004 128.25 35.2504 128.25 39.1504C128.25 42.7504 130.95 45.6004 134.55 45.6004C137.4 45.6004 139.2 43.8004 139.8 42.7504L137.7 41.2504C136.95 42.3004 136.05 43.0504 134.55 43.0504C133.05 43.0504 132.15 42.4504 131.4 41.1004L139.95 37.5004L139.65 36.7504ZM71.5504 34.6504V37.3504H78.0004C77.8504 38.8504 77.2504 40.0504 76.5004 40.8004C75.6004 41.7004 74.1004 42.7504 71.5504 42.7504C67.5004 42.7504 64.5004 39.6004 64.5004 35.5504C64.5004 31.5004 67.6504 28.3504 71.5504 28.3504C73.6504 28.3504 75.3004 29.2504 76.5004 30.3004L78.4504 28.3504C76.8004 26.8504 74.7004 25.6504 71.7004 25.6504C66.3004 25.6504 61.6504 30.1504 61.6504 35.5504C61.6504 40.9504 66.3004 45.4504 71.7004 45.4504C74.7004 45.4504 76.8004 44.5504 78.6004 42.6004C80.4004 40.8004 81.0004 38.2504 81.0004 36.3004C81.0004 35.7004 81.0004 35.1004 80.8504 34.6504H71.5504ZM88.2004 42.9004C86.2504 42.9004 84.6004 41.2504 84.6004 39.0004C84.6004 36.7504 86.2504 35.1004 88.2004 35.1004C90.1504 35.1004 91.8004 36.6004 91.8004 39.0004C91.8004 41.2504 90.1504 42.9004 88.2004 42.9004ZM88.2004 32.7004C84.6004 32.7004 81.7504 35.4004 81.7504 39.1504C81.7504 42.7504 84.6004 45.6004 88.2004 45.6004C91.8004 45.6004 94.6504 42.9004 94.6504 39.1504C94.6504 35.2504 91.8004 32.7004 88.2004 32.7004ZM102.15 42.9004C100.2 42.9004 98.5504 41.2504 98.5504 39.0004C98.5504 36.7504 100.2 35.1004 102.15 35.1004C104.1 35.1004 105.75 36.6004 105.75 39.0004C105.75 41.2504 104.1 42.9004 102.15 42.9004ZM102.15 32.7004C98.5504 32.7004 95.7004 35.4004 95.7004 39.1504C95.7004 42.7504 98.5504 45.6004 102.15 45.6004C105.75 45.6004 108.6 42.9004 108.6 39.1504C108.6 35.2504 105.75 32.7004 102.15 32.7004Z" fill="white"/>
    </g>
    <mask id="mask2" mask-type="alpha" maskUnits="userSpaceOnUse" x="15" y="11" width="20" height="38">
        <path fill-rule="evenodd" clip-rule="evenodd" d="M15 13.3497V46.4997C15 47.4 15.3 48.1497 15.75 48.5997L15.9 48.75L34.5 30.15V29.8497L15.6 11.25C15.15 11.6997 15 12.4497 15 13.3497Z" fill="white"/>
    </mask>
    <g mask="url(#mask2)">
        <path fill-rule="evenodd" clip-rule="evenodd" d="M15 13.3497V46.4997C15 47.4 15.3 48.1497 15.75 48.5997L15.9 48.75L34.5 30.15V29.8497L15.6 11.25C15.15 11.6997 15 12.4497 15 13.3497Z" fill="#32BBFF"/>
    </g>
    <mask id="mask3" mask-type="alpha" maskUnits="userSpaceOnUse" x="34" y="23" width="16" height="14">
        <path fill-rule="evenodd" clip-rule="evenodd" d="M34.3496 29.8495V30.2995L40.4996 36.4495L47.9996 32.3995C50.0996 31.1995 50.0996 29.2495 47.9996 28.0492L40.6496 23.8495L40.4996 23.6992L34.3496 29.8495Z" fill="white"/>
    </mask>
    <g mask="url(#mask3)">
        <path fill-rule="evenodd" clip-rule="evenodd" d="M34.3496 29.8495V30.2995L40.4996 36.4495L47.9996 32.3995C50.0996 31.1995 50.0996 29.2495 47.9996 28.0492L40.6496 23.8495L40.4996 23.6992L34.3496 29.8495Z" fill="#FFD500"/>
    </g>
    <mask id="mask4" mask-type="alpha" maskUnits="userSpaceOnUse" x="15" y="30" width="26" height="20">
        <path fill-rule="evenodd" clip-rule="evenodd" d="M15.5996 48.7503C16.3496 49.5 17.3996 49.5 18.7496 48.9L40.6496 36.3L34.3496 30L15.5996 48.7503Z" fill="white"/>
    </mask>
    <g mask="url(#mask4)">
        <path fill-rule="evenodd" clip-rule="evenodd" d="M15.5996 48.7503C16.3496 49.5 17.3996 49.5 18.7496 48.9L40.6496 36.3L34.3496 30L15.5996 48.7503Z" fill="url(#paint0_linear)"/>
    </g>
    <mask id="mask5" mask-type="alpha" maskUnits="userSpaceOnUse" x="15" y="10" width="26" height="21">
        <path fill-rule="evenodd" clip-rule="evenodd" d="M15.5996 11.4007L34.3496 30.0007L40.6496 23.7007L18.7496 11.251C18.1412 10.9129 17.594 10.7578 17.1077 10.7578C16.5143 10.7575 16.0118 10.9885 15.5996 11.4007Z" fill="white"/>
    </mask>
    <g mask="url(#mask5)">
        <path fill-rule="evenodd" clip-rule="evenodd" d="M15.5996 11.4007L34.3496 30.0007L40.6496 23.7007L18.7496 11.251C18.1412 10.9129 17.594 10.7578 17.1077 10.7578C16.5143 10.7575 16.0118 10.9885 15.5996 11.4007Z" fill="#29CC5E"/>
    </g>
    <path fill-rule="evenodd" clip-rule="evenodd" d="M40.4996 36.1504L18.7496 48.4504C17.5496 49.2004 16.4996 49.0504 15.7496 48.4504L15.5996 48.6004L15.7496 48.7504C16.4996 49.3504 17.5496 49.5004 18.7496 48.7504L40.4996 36.1504Z" fill="black"/>
    <path fill-rule="evenodd" clip-rule="evenodd" d="M48 31.95L40.5 36.15L40.65 36.3L48 32.1C49.05 31.5 49.5 30.75 49.5 30C49.5 30.75 48.9 31.35 48 31.95ZM15.6 48.45C15.15 48 15 47.25 15 46.35V46.5C15 47.4 15.3 48.15 15.75 48.6V48.45H15.6Z" fill="black"/>
    <path fill-rule="evenodd" clip-rule="evenodd" d="M18.75 11.3999L48 28.0499C48.9 28.6499 49.5 29.2499 49.5 29.9999C49.5 29.2499 49.05 28.4999 48 27.8999L18.75 11.2499C16.65 10.0499 15 10.9499 15 13.3499V13.4999C15 11.2499 16.65 10.1999 18.75 11.3999Z" fill="white"/>
    <defs>
        <linearGradient id="paint0_linear" x1="15.1068" y1="20.2538" x2="-8.84103" y2="60.4597" gradientUnits="userSpaceOnUse">
            <stop stop-color="#FF3A44"/>
            <stop offset="1" stop-color="#C31162"/>
        </linearGradient>
    </defs>
</svg>
